<?xml version="1.0" encoding="utf-8"?>
<!-- Generator: Adobe Illustrator 15.1.0, SVG Export Plug-In . SVG Version: 6.00 Build 0)  -->
<!DOCTYPE svg PUBLIC "-//W3C//DTD SVG 1.1//EN" "http://www.w3.org/Graphics/SVG/1.1/DTD/svg11.dtd">
<svg version="1.1" id="Layer_1" xmlns="http://www.w3.org/2000/svg" xmlns:xlink="http://www.w3.org/1999/xlink" x="0px" y="0px"
	 width="694.25px" height="255.25px" viewBox="0 0 694.25 255.25" enable-background="new 0 0 694.25 255.25" xml:space="preserve">
<g id="frame">
	<path d="M690.005,56.703c-0.593-6.919-2.371-6.919-4.35-8.106c-1.979-1.186-56.021-26.692-94.246-38.028
		C555.064-0.21,471.752,3.666,356.583,3.734V3.713c-3.047,0.009-6.056,0.014-9.062,0.017c-3.006-0.003-6.016-0.008-9.062-0.017
		v0.021c-115.168-0.07-198.483-3.946-234.827,6.833C65.408,21.904,11.364,47.411,9.387,48.597c-1.977,1.187-3.757,1.187-4.351,8.106
		c-0.592,6.921-0.197,33.019-0.197,33.019c0.396,1.978,2.175,3.362,2.175,3.362s14.83,4.745,17.598,7.117
		c2.767,2.373,4.349,5.537,4.349,5.537l13.05,53.581l9.094,25.312l8.503,12.326c30.054,43.23,99.124,75.396,174.521,36.902
		C309.526,195.37,314.535,98.62,314.535,98.62c-9.227-8.173-11.599-11.6-6.854-20.036c4.745-8.437,23.2-11.994,23.2-11.994h33.284
		c0,0,18.453,3.557,23.196,11.994c4.746,8.437,2.375,11.863-6.854,20.036c0,0,5.011,96.75,80.406,135.239
		c75.396,38.488,144.467,6.328,174.52-36.905l8.507-12.326l9.097-25.31l13.049-53.583c0,0,1.58-3.164,4.35-5.537
		c2.771-2.373,17.601-7.117,17.601-7.117s1.775-1.384,2.177-3.362C690.204,89.722,690.6,63.624,690.005,56.703z"/>
	<path fill="#202020" d="M567.668,225.443c1.66-0.156,3.342,0.469,4.365,1.709c0,0.506,0,1.012,0,1.518
		c-1.823,3.307-6.244,3.986-9.568,4.965c-5.633,1.656-11.35,2.932-17.172,3.699c-12.467,1.648-25.056,1.412-37.443-0.678
		c-3.14-0.529-25.629-3.707-22.854-9.68c1.312-2.828,9.686-1.539,11.562-1.541c7.567-0.014,15.138,0.008,22.699,0.014
		C535.392,225.455,551.53,225.428,567.668,225.443L567.668,225.443z"/>
	<path fill="#202020" d="M522.683,21.019c16.298,0.664,32.643,1.875,48.579,5.5c2.476,0.562,6.519,0.876,7.979,3.436
		c1.051,1.835,0.125,3.062-1.702,3.77c-2.533,0.98-6.076,0.393-8.714,0.393c-5.785,0-11.569,0-17.354,0
		c-17.336,0-34.672,0.003-52.008,0c-8.746-0.001-17.517,0.214-26.258,0.003c-1.762-0.042-4.147,0.075-5.271-1.528
		c-1.338-1.907,0.224-3.91,1.885-4.922c3.188-1.943,7.354-2.495,10.95-3.204c4.441-0.875,8.896-1.669,13.357-2.365
		c8.442-1.314,16.663-0.866,25.142-1.081c-3.288,0-6.578,0-9.864,0l0,0l0,0c4.108,0,8.225,0,12.338,0h-2.474
		c1.271,0,2.531,0,3.803,0h-0.192c0.19,0,0.381,0,0.571,0h-0.381c0.188,0,0.381,0,0.565,0h-0.188c0.062,0,0.127,0,0.188,0
		c-0.44,0-0.886,0-1.328,0h0.567c-0.379,0-0.758,0-1.137,0h0.564h-0.564"/>
	<path fill="#202020" d="M563.681,209.121c-21.414,0.002-42.831-0.004-64.247,0c-9.334,0.002-18.671,0-28.006,0
		c-6.979,0-16.562,1.807-23.146-1.08c-3.613-1.586-9.114-6.451-10.628-10.119c0.441-2.871,6.542-1.711,8.505-1.711
		c8.805,0,17.605,0.002,26.415,0.002c11.479,0,22.966-0.002,34.45,0c23.419,0,46.842-0.002,70.261,0
		c9.746,0.002,19.493-0.002,29.233,0c1.929,0,9.867-1.332,8.796,2.467c-3.146,4.266-7.589,9.271-13.008,10.252
		c-5.146,0.938-10.979,0.189-16.188,0.189C578.636,209.121,571.158,209.121,563.681,209.121L563.681,209.121z"/>
	<path fill="#202020" d="M575.451,179.891c-28.314,0.004-56.631-0.002-84.945-0.002c-12.041,0-24.085-0.002-36.128,0.002
		c-8.062,0-16.168,0.246-24.227-0.002c-2.501-0.078-4.85-0.221-6.819-2.062c-3.566-3.326-6.756-10.306-0.081-10.853
		c16.075-1.322,32.779,0.012,48.917,0.004c24.882-0.015,49.765,0,74.646,0.002c14.485,0.002,28.979,0,43.474,0
		c10.567,0,21.131,0.004,31.697-0.002c2.954,0,9.991-1.483,12.116,1.521c0.469,5.834-5.264,11.076-10.593,11.392
		C607.605,180.816,591.392,179.889,575.451,179.891L575.451,179.891z"/>
	<path fill="#202020" d="M582.095,150.66c-52.908,0-105.812-0.021-158.721,0c-7.57,0.002-12.136,0.338-13.25-8.164l-0.188-0.189
		c-0.962-6.807,11.01-4.549,14.512-4.549c14.554,0.004,29.105-0.01,43.665-0.01c19.335-0.002,40.675,0.014,60.068,0.004
		c22.359-0.016,44.859-0.006,66.811,0.002c14.538,0.008,29.155-0.471,43.688-0.018c5.402,0.172,6.64,3.24,4.495,8.396
		c-2.854,6.875-11.922,4.519-18.021,4.525C610.866,150.67,596.158,150.684,582.095,150.66L582.095,150.66z"/>
	<path fill="#202020" d="M585.32,121.619c-54.323,0-108.649-0.001-162.979,0c-7.936,0-14.104,1.775-14.119-7.595l0.189-0.19
		c-0.209-1.755,0.703-3.176,1.896-4.364c0.615-0.145,1.188-0.399,1.705-0.759c30.521,0,61.045,0,91.567,0
		c28.654,0,57.312,0,85.968,0c18.328,0,36.655,0,54.983,0c0.479,0.313,0.977,0.564,1.517,0.759c0.313,0.497,0.696,0.94,1.146,1.328
		c0.717,1.594,0.563,3.231,0.563,4.936l-0.188,0.381c0.145,1.962-0.543,3.88-2.276,4.936c-1.939,0.861-4.128,0.569-6.205,0.569
		c-6.564,0-13.136,0-19.704,0C608.035,121.619,596.678,121.619,585.32,121.619L585.32,121.619z"/>
	<path fill="#202020" d="M585.511,92.386c-45.661,0-91.316,0-136.979,0c-8.562,0-17.116,0-25.673,0
		c-2.656,0-6.792,0.819-9.127-0.947c-2.733-3.194,1.559-10.241,4.838-11.482c2.648-1.006,6.011-0.479,8.764-0.479
		c8.255,0,16.509,0,24.763,0.001c24.854,0.008,49.698,0,74.556,0c20.666,0,41.337,0.002,62.007,0
		c15.229-0.001,30.459-0.008,45.688-0.003c5.491,0.003,9.2,0.451,10.554,6.424c2.016,8.906-7.717,6.484-13.939,6.484
		C615.802,92.384,600.658,92.39,585.511,92.386L585.511,92.386z"/>
	<path fill="#202020" d="M580.387,63.158c-33.188,0.033-66.378-0.018-99.564,0.001c-16.43,0.009-32.983,0.646-49.396-0.013
		c-3.945-0.16-4.938-1.212-2.467-4.671c1.683-2.351,3.715-5.118,6.172-6.648c3.283-2.047,7.445-1.572,11.106-1.579
		c10.839-0.019,21.678,0.005,32.517,0.007c16.054,0,32.107-0.013,48.16-0.007c15.728,0.007,31.454,0.01,47.181,0.003
		c14.942-0.006,30.769-1.257,45.772-0.013c3.374,0.28,6.018,1.536,8.382,3.919c1.267,1.275,5.421,5.232,5.103,7.178
		c-0.562,3.433-10.252,1.822-12.351,1.824c-11.142,0.004-22.284-0.001-33.423-0.001C585.178,63.158,582.782,63.158,580.387,63.158
		L580.387,63.158z"/>
	<path fill="#202020" d="M207.976,225.633c4.537,0.133,2.247,4.293-0.099,5.691c-4.801,2.865-11.696,3.734-17.112,4.854
		c-12.554,2.596-26.079,3.125-38.792,1.389c-4.112-0.561-29.633-3.311-28.463-9.936c0.665-3.771,11.043-2.191,13.063-2.189
		c8.043,0.012,16.085,0.004,24.129,0.004c8.591,0,17.184-0.004,25.776-0.004C193.354,225.443,201.255,224.26,207.976,225.633
		L207.976,225.633z"/>
	<path fill="#202020" d="M204.939,209.121c9.491-0.01,19.792-0.004,29.56-0.002c4.643,0,9.504,0.65,13.519-1.91
		c2.62-1.674,6.421-4.914,7.967-7.598c3.139-5.445-8.929-3.398-12.386-3.398c-37.707-0.002-75.399,0.006-113.104-0.002
		c-8.331,0-16.672,0.002-25.03,0.002c-6.482,0-12.963,0-19.445,0c-2.008,0-4.911-0.566-6.547,0.76
		c-0.757,2.721,5.373,8.098,7.5,9.676c4.857,3.604,11.606,2.477,17.281,2.479c21.269,0,42.537,0,63.804-0.002
		C180.353,209.119,192.646,209.121,204.939,209.121L204.939,209.121z"/>
	<path fill="#202020" d="M217.277,179.891c10.463,0.004,22.957,0.002,34.09,0.002c5.408,0.002,14.836,1.967,19.481-1.688
		c2.143-1.688,6.416-7.938,4.237-10.396c-1.228-1.393-4.67-0.826-6.323-0.83c-6.297-0.021-12.596,0.014-18.894,0.02
		c-43.636,0.027-86.68-0.021-130.356-0.006c-9.492,0.006-19.854-0.004-29.791-0.002c-7.449,0.004-14.899,0-22.349,0.002
		c-2.407,0-5.229-0.611-6.689,1.52c0,0.695,0,1.391,0,2.088c2.649,4.451,3.975,8.664,9.735,9.301
		c13.082,1.451,27.111-0.002,40.274,0c20.58,0,41.159,0,61.739,0C187.38,179.891,202.329,179.891,217.277,179.891L217.277,179.891z"
		/>
	<path fill="#202020" d="M54.039,137.752c-1.395,0.652-3.013,1.387-3.435,3.018c-0.398,1.531,0.2,3.352,0.729,4.777
		c1.038,2.791,3.155,4.986,6.256,5.225c0.9,0.068,1.796-0.109,2.693-0.162c1.859-0.092,3.732,0.025,5.591,0.064
		c5.412,0.111,10.825-0.088,16.237-0.031c9.679,0.104,19.36-0.004,29.04-0.006c5.384,0,10.772,0.047,16.159,0.021
		c11.142-0.057,22.285,0.025,33.426,0.012c4.534-0.006,9.066-0.027,13.599-0.006c11.044,0.047,22.09-0.031,33.135-0.02
		c5.608,0.01,11.225,0.104,16.83,0.002c9.41-0.174,18.832,0.107,28.243,0.033c5.512-0.049,11.021,0.062,16.533,0.027
		c2.985-0.021,5.953,0.057,8.925,0.084c2.759,0.027,5.204-2.422,6.192-4.824c1.042-2.525,0.826-6.506-1.87-7.979
		c-0.904-0.497-1.801-0.401-2.78-0.28c-1.309,0.164-2.596,0.131-3.912,0.078c-5-0.199-9.996,0.057-14.998,0.002
		c-10.658-0.11-21.32-0.07-31.978-0.017c-4.5,0.021-9-0.06-13.501-0.021c-11.234,0.092-22.468-0.051-33.7-0.018
		c-5.151,0.021-10.301,0.021-15.45,0c-9.613-0.037-19.226,0.037-28.839,0.012c-8.612-0.021-17.228,0.104-25.839,0.008
		c-6.06-0.062-12.124,0.004-18.184,0.004c-10.971,0-21.942-0.029-32.912-0.004C58.167,137.762,56.101,137.703,54.039,137.752
		L54.039,137.752z"/>
	<path fill="#202020" d="M51.382,108.71c-4.534,0.102-4.756,5.058-4.211,8.472c0.913,5.728,7.251,4.447,11.614,4.451
		c17.849,0.014,35.702,0.021,53.55-0.012c37.449-0.07,74.78-0.069,112.233-0.008c18.539,0.029,37.086,0.084,55.625-0.006
		c4.442-0.024,6.7-1.758,6.366-6.443c-0.325-4.58-2.266-6.479-6.874-6.451c-37.528,0.23-75.069,0.004-112.598-0.004
		c-36.07-0.008-72.14,0.009-108.211,0C56.379,108.709,53.881,108.713,51.382,108.71L51.382,108.71z"/>
	<path fill="#202020" d="M165.649,92.386c-36.248,0.102-71.841-0.18-108.06-0.003c-4.061,0.019-8.876,0.569-8.103-4.954
		c0.564-4.04,2.338-7.578,6.852-7.992c8.303-0.761,17.188,0.043,25.559,0.049c9.44,0.008,18.881,0.008,28.32-0.009
		c34.643-0.063,70.513,0.031,105.6,0.005c16.656-0.014,34.16-0.029,51.149-0.014c4.677,0.004,10.475-1.036,13.022,3.905
		c1.364,2.642,3.331,7.439-0.405,8.837c-1.711,0.641-4.322,0.186-6.077,0.184c-5.214-0.005-10.429-0.003-15.643-0.006
		c-10.971-0.006-21.944,0.003-32.915-0.003c-17.055-0.012-34.836,0-52.15,0.001C170.5,92.386,167.755,92.386,165.649,92.386
		L165.649,92.386z"/>
	<path fill="#202020" d="M214.62,63.158c10.351,0,20.701,0,31.052,0c5.517,0,11.032,0,16.549,0c1.749,0,3.885,0.446,5.167-0.951
		c-0.057-0.281,0.006-0.534,0.19-0.758c-1.141-6.874-10.112-11.192-16.083-11.198c-18.167-0.019-36.302,0-54.396,0
		c-38.333,0-76.564-0.006-114.933,0c-4.808,0-10.155-0.744-14.185,2.464c-2.106,1.677-6.651,6.229-6.537,9.113
		c1.032,1.868,3.512,1.332,5.339,1.331c6.145-0.006,12.289,0,18.433,0c9.852,0,19.702,0,29.553,0c20.151,0.001,40.302,0,60.454,0
		C188.354,63.158,201.487,63.158,214.62,63.158L214.62,63.158z"/>
	<path fill="#202020" d="M219.176,34.116c4.65-0.013,5.848-3.858,2.383-6.361c-5.442-3.928-15.302-4.064-21.782-5.146
		c-15.772-2.63-31.687-1.744-47.598-0.72c-8.636,0.556-17.284,1.759-25.792,3.296c-3.222,0.583-14.963,1.435-15.049,5.935
		c-0.096,4.926,14.023,3.006,16.736,3.003c9.721-0.015,19.419-0.004,29.143-0.013C177.88,34.094,198.502,34.119,219.176,34.116
		L219.176,34.116z"/>
</g>
<g id="leds">
	<polygon id="led_174" fill="#808080" points="592.625,211.125 592.625,223.125 597.625,223.125 597.625,211.125 	"/>
	<polygon id="led_173" fill="#808080" points="575.625,211.125 575.625,223.125 580.625,223.125 580.625,211.125 	"/>
	<polygon id="led_172" fill="#808080" points="558.625,211.125 558.625,223.125 563.625,223.125 563.625,211.125 	"/>
	<polygon id="led_171" fill="#808080" points="541.625,211.125 541.625,223.125 546.625,223.125 546.625,211.125 	"/>
	<polygon id="led_170" fill="#808080" points="524.625,211.125 524.625,223.125 529.625,223.125 529.625,211.125 	"/>
	<polygon id="led_169" fill="#808080" points="507.625,211.125 507.625,223.125 512.625,223.125 512.625,211.125 	"/>
	<polygon id="led_168" fill="#808080" points="490.625,211.125 490.625,223.125 495.625,223.125 495.625,211.125 	"/>
	<polygon id="led_167" fill="#808080" points="473.625,211.125 473.625,223.125 478.625,223.125 478.625,211.125 	"/>
	<polygon id="led_166" fill="#808080" points="456.625,211.125 456.625,223.125 461.625,223.125 461.625,211.125 	"/>
	<polygon id="led_165" fill="#808080" points="626.625,182.125 626.625,194.125 631.625,194.125 631.625,182.125 	"/>
	<polygon id="led_164" fill="#808080" points="609.625,182.125 609.625,194.125 614.625,194.125 614.625,182.125 	"/>
	<polygon id="led_163" fill="#808080" points="592.625,182.125 592.625,194.125 597.625,194.125 597.625,182.125 	"/>
	<polygon id="led_162" fill="#808080" points="575.625,182.125 575.625,194.125 580.625,194.125 580.625,182.125 	"/>
	<polygon id="led_161" fill="#808080" points="558.625,182.125 558.625,194.125 563.625,194.125 563.625,182.125 	"/>
	<polygon id="led_160" fill="#808080" points="541.625,182.125 541.625,194.125 546.625,194.125 546.625,182.125 	"/>
	<polygon id="led_159" fill="#808080" points="524.625,182.125 524.625,194.125 529.625,194.125 529.625,182.125 	"/>
	<polygon id="led_158" fill="#808080" points="507.625,182.125 507.625,194.125 512.625,194.125 512.625,182.125 	"/>
	<polygon id="led_157" fill="#808080" points="490.625,182.125 490.625,194.125 495.625,194.125 495.625,182.125 	"/>
	<polygon id="led_156" fill="#808080" points="473.625,182.125 473.625,194.125 478.625,194.125 478.625,182.125 	"/>
	<polygon id="led_155" fill="#808080" points="456.625,182.125 456.625,194.125 461.625,194.125 461.625,182.125 	"/>
	<polygon id="led_154" fill="#808080" points="439.625,182.125 439.625,194.125 444.625,194.125 444.625,182.125 	"/>
	<polygon id="led_153" fill="#808080" points="643.625,153.125 643.625,165.125 648.625,165.125 648.625,153.125 	"/>
	<polygon id="led_152" fill="#808080" points="626.625,153.125 626.625,165.125 631.625,165.125 631.625,153.125 	"/>
	<polygon id="led_151" fill="#808080" points="609.625,153.125 609.625,165.125 614.625,165.125 614.625,153.125 	"/>
	<polygon id="led_150" fill="#808080" points="592.625,153.125 592.625,165.125 597.625,165.125 597.625,153.125 	"/>
	<polygon id="led_149" fill="#808080" points="575.625,153.125 575.625,165.125 580.625,165.125 580.625,153.125 	"/>
	<polygon id="led_148" fill="#808080" points="558.625,153.125 558.625,165.125 563.625,165.125 563.625,153.125 	"/>
	<polygon id="led_147" fill="#808080" points="541.625,153.125 541.625,165.125 546.625,165.125 546.625,153.125 	"/>
	<polygon id="led_146" fill="#808080" points="524.625,153.125 524.625,165.125 529.625,165.125 529.625,153.125 	"/>
	<polygon id="led_145" fill="#808080" points="507.625,153.125 507.625,165.125 512.625,165.125 512.625,153.125 	"/>
	<polygon id="led_144" fill="#808080" points="490.625,153.125 490.625,165.125 495.625,165.125 495.625,153.125 	"/>
	<polygon id="led_143" fill="#808080" points="473.625,153.125 473.625,165.125 478.625,165.125 478.625,153.125 	"/>
	<polygon id="led_142" fill="#808080" points="456.625,153.125 456.625,165.125 461.625,165.125 461.625,153.125 	"/>
	<polygon id="led_141" fill="#808080" points="439.625,153.125 439.625,165.125 444.625,165.125 444.625,153.125 	"/>
	<polygon id="led_140" fill="#808080" points="422.625,153.125 422.625,165.125 427.625,165.125 427.625,153.125 	"/>
	<polygon id="led_139" fill="#808080" points="405.625,153.125 405.625,165.125 410.625,165.125 410.625,153.125 	"/>
	<polygon id="led_138" fill="#808080" points="643.625,124.125 643.625,136.125 648.625,136.125 648.625,124.125 	"/>
	<polygon id="led_137" fill="#808080" points="626.625,124.125 626.625,136.125 631.625,136.125 631.625,124.125 	"/>
	<polygon id="led_136" fill="#808080" points="609.625,124.125 609.625,136.125 614.625,136.125 614.625,124.125 	"/>
	<polygon id="led_135" fill="#808080" points="592.625,124.125 592.625,136.125 597.625,136.125 597.625,124.125 	"/>
	<polygon id="led_134" fill="#808080" points="575.625,124.125 575.625,136.125 580.625,136.125 580.625,124.125 	"/>
	<polygon id="led_133" fill="#808080" points="558.625,124.125 558.625,136.125 563.625,136.125 563.625,124.125 	"/>
	<polygon id="led_132" fill="#808080" points="541.625,124.125 541.625,136.125 546.625,136.125 546.625,124.125 	"/>
	<polygon id="led_131" fill="#808080" points="524.625,124.125 524.625,136.125 529.625,136.125 529.625,124.125 	"/>
	<polygon id="led_130" fill="#808080" points="507.625,124.125 507.625,136.125 512.625,136.125 512.625,124.125 	"/>
	<polygon id="led_129" fill="#808080" points="490.625,124.125 490.625,136.125 495.625,136.125 495.625,124.125 	"/>
	<polygon id="led_128" fill="#808080" points="473.625,124.125 473.625,136.125 478.625,136.125 478.625,124.125 	"/>
	<polygon id="led_127" fill="#808080" points="456.625,124.125 456.625,136.125 461.625,136.125 461.625,124.125 	"/>
	<polygon id="led_126" fill="#808080" points="439.625,124.125 439.625,136.125 444.625,136.125 444.625,124.125 	"/>
	<polygon id="led_125" fill="#808080" points="422.625,124.125 422.625,136.125 427.625,136.125 427.625,124.125 	"/>
	<polygon id="led_124" fill="#808080" points="405.625,124.125 405.625,136.125 410.625,136.125 410.625,124.125 	"/>
	<polygon id="led_123" fill="#808080" points="643.625,95.125 643.625,107.125 648.625,107.125 648.625,95.125 	"/>
	<polygon id="led_122" fill="#808080" points="626.625,95.125 626.625,107.125 631.625,107.125 631.625,95.125 	"/>
	<polygon id="led_121" fill="#808080" points="609.625,95.125 609.625,107.125 614.625,107.125 614.625,95.125 	"/>
	<polygon id="led_120" fill="#808080" points="592.625,95.125 592.625,107.125 597.625,107.125 597.625,95.125 	"/>
	<polygon id="led_119" fill="#808080" points="575.625,95.125 575.625,107.125 580.625,107.125 580.625,95.125 	"/>
	<polygon id="led_118" fill="#808080" points="558.625,95.125 558.625,107.125 563.625,107.125 563.625,95.125 	"/>
	<polygon id="led_117" fill="#808080" points="541.625,95.125 541.625,107.125 546.625,107.125 546.625,95.125 	"/>
	<polygon id="led_116" fill="#808080" points="524.625,95.125 524.625,107.125 529.625,107.125 529.625,95.125 	"/>
	<polygon id="led_115" fill="#808080" points="507.625,95.125 507.625,107.125 512.625,107.125 512.625,95.125 	"/>
	<polygon id="led_114" fill="#808080" points="490.625,95.125 490.625,107.125 495.625,107.125 495.625,95.125 	"/>
	<polygon id="led_113" fill="#808080" points="473.625,95.125 473.625,107.125 478.625,107.125 478.625,95.125 	"/>
	<polygon id="led_112" fill="#808080" points="456.625,95.125 456.625,107.125 461.625,107.125 461.625,95.125 	"/>
	<polygon id="led_111" fill="#808080" points="439.625,95.125 439.625,107.125 444.625,107.125 444.625,95.125 	"/>
	<polygon id="led_110" fill="#808080" points="422.625,95.125 422.625,107.125 427.625,107.125 427.625,95.125 	"/>
	<polygon id="led_109" fill="#808080" points="405.625,95.125 405.625,107.125 410.625,107.125 410.625,95.125 	"/>
	<polygon id="led_108" fill="#808080" points="626.625,66.125 626.625,78.125 631.625,78.125 631.625,66.125 	"/>
	<polygon id="led_107" fill="#808080" points="609.625,66.125 609.625,78.125 614.625,78.125 614.625,66.125 	"/>
	<polygon id="led_106" fill="#808080" points="592.625,66.125 592.625,78.125 597.625,78.125 597.625,66.125 	"/>
	<polygon id="led_105" fill="#808080" points="575.625,66.125 575.625,78.125 580.625,78.125 580.625,66.125 	"/>
	<polygon id="led_104" fill="#808080" points="558.625,66.125 558.625,78.125 563.625,78.125 563.625,66.125 	"/>
	<polygon id="led_103" fill="#808080" points="541.625,66.125 541.625,78.125 546.625,78.125 546.625,66.125 	"/>
	<polygon id="led_102" fill="#808080" points="524.625,66.125 524.625,78.125 529.625,78.125 529.625,66.125 	"/>
	<polygon id="led_101" fill="#808080" points="507.625,66.125 507.625,78.125 512.625,78.125 512.625,66.125 	"/>
	<polygon id="led_100" fill="#808080" points="490.625,66.125 490.625,78.125 495.625,78.125 495.625,66.125 	"/>
	<polygon id="led_99" fill="#808080" points="473.625,66.125 473.625,78.125 478.625,78.125 478.625,66.125 	"/>
	<polygon id="led_98" fill="#808080" points="456.625,66.125 456.625,78.125 461.625,78.125 461.625,66.125 	"/>
	<polygon id="led_97" fill="#808080" points="439.625,66.125 439.625,78.125 444.625,78.125 444.625,66.125 	"/>
	<polygon id="led_96" fill="#808080" points="592.625,37.125 592.625,49.125 597.625,49.125 597.625,37.125 	"/>
	<polygon id="led_95" fill="#808080" points="575.625,37.125 575.625,49.125 580.625,49.125 580.625,37.125 	"/>
	<polygon id="led_94" fill="#808080" points="558.625,37.125 558.625,49.125 563.625,49.125 563.625,37.125 	"/>
	<polygon id="led_93" fill="#808080" points="541.625,37.125 541.625,49.125 546.625,49.125 546.625,37.125 	"/>
	<polygon id="led_92" fill="#808080" points="524.625,37.125 524.625,49.125 529.625,49.125 529.625,37.125 	"/>
	<polygon id="led_91" fill="#808080" points="507.625,37.125 507.625,49.125 512.625,49.125 512.625,37.125 	"/>
	<polygon id="led_90" fill="#808080" points="490.625,37.125 490.625,49.125 495.625,49.125 495.625,37.125 	"/>
	<polygon id="led_89" fill="#808080" points="473.625,37.125 473.625,49.125 478.625,49.125 478.625,37.125 	"/>
	<polygon id="led_88" fill="#808080" points="456.625,37.125 456.625,49.125 461.625,49.125 461.625,37.125 	"/>
	<polygon id="led_87" fill="#808080" points="232.625,211.125 232.625,223.125 237.625,223.125 237.625,211.125 	"/>
	<polygon id="led_86" fill="#808080" points="215.625,211.125 215.625,223.125 220.625,223.125 220.625,211.125 	"/>
	<polygon id="led_85" fill="#808080" points="198.625,211.125 198.625,223.125 203.625,223.125 203.625,211.125 	"/>
	<polygon id="led_84" fill="#808080" points="181.625,211.125 181.625,223.125 186.625,223.125 186.625,211.125 	"/>
	<polygon id="led_83" fill="#808080" points="164.625,211.125 164.625,223.125 169.625,223.125 169.625,211.125 	"/>
	<polygon id="led_82" fill="#808080" points="147.625,211.125 147.625,223.125 152.625,223.125 152.625,211.125 	"/>
	<polygon id="led_81" fill="#808080" points="130.625,211.125 130.625,223.125 135.625,223.125 135.625,211.125 	"/>
	<polygon id="led_80" fill="#808080" points="113.625,211.125 113.625,223.125 118.625,223.125 118.625,211.125 	"/>
	<polygon id="led_79" fill="#808080" points="96.625,211.125 96.625,223.125 101.625,223.125 101.625,211.125 	"/>
	<polygon id="led_78" fill="#808080" points="249.625,182.125 249.625,194.125 254.625,194.125 254.625,182.125 	"/>
	<polygon id="led_77" fill="#808080" points="232.625,182.125 232.625,194.125 237.625,194.125 237.625,182.125 	"/>
	<polygon id="led_76" fill="#808080" points="215.625,182.125 215.625,194.125 220.625,194.125 220.625,182.125 	"/>
	<polygon id="led_75" fill="#808080" points="198.625,182.125 198.625,194.125 203.625,194.125 203.625,182.125 	"/>
	<polygon id="led_74" fill="#808080" points="181.625,182.125 181.625,194.125 186.625,194.125 186.625,182.125 	"/>
	<polygon id="led_73" fill="#808080" points="164.625,182.125 164.625,194.125 169.625,194.125 169.625,182.125 	"/>
	<polygon id="led_72" fill="#808080" points="147.625,182.125 147.625,194.125 152.625,194.125 152.625,182.125 	"/>
	<polygon id="led_71" fill="#808080" points="130.625,182.125 130.625,194.125 135.625,194.125 135.625,182.125 	"/>
	<polygon id="led_70" fill="#808080" points="113.625,182.125 113.625,194.125 118.625,194.125 118.625,182.125 	"/>
	<polygon id="led_69" fill="#808080" points="96.625,182.125 96.625,194.125 101.625,194.125 101.625,182.125 	"/>
	<polygon id="led_68" fill="#808080" points="79.625,182.125 79.625,194.125 84.625,194.125 84.625,182.125 	"/>
	<polygon id="led_67" fill="#808080" points="62.625,182.125 62.625,194.125 67.625,194.125 67.625,182.125 	"/>
	<polygon id="led_66" fill="#808080" points="283.625,153.125 283.625,165.125 288.625,165.125 288.625,153.125 	"/>
	<polygon id="led_65" fill="#808080" points="266.625,153.125 266.625,165.125 271.625,165.125 271.625,153.125 	"/>
	<polygon id="led_64" fill="#808080" points="249.625,153.125 249.625,165.125 254.625,165.125 254.625,153.125 	"/>
	<polygon id="led_63" fill="#808080" points="232.625,153.125 232.625,165.125 237.625,165.125 237.625,153.125 	"/>
	<polygon id="led_62" fill="#808080" points="215.625,153.125 215.625,165.125 220.625,165.125 220.625,153.125 	"/>
	<polygon id="led_61" fill="#808080" points="198.625,153.125 198.625,165.125 203.625,165.125 203.625,153.125 	"/>
	<polygon id="led_60" fill="#808080" points="181.625,153.125 181.625,165.125 186.625,165.125 186.625,153.125 	"/>
	<polygon id="led_59" fill="#808080" points="164.625,153.125 164.625,165.125 169.625,165.125 169.625,153.125 	"/>
	<polygon id="led_58" fill="#808080" points="147.625,153.125 147.625,165.125 152.625,165.125 152.625,153.125 	"/>
	<polygon id="led_57" fill="#808080" points="130.625,153.125 130.625,165.125 135.625,165.125 135.625,153.125 	"/>
	<polygon id="led_56" fill="#808080" points="113.625,153.125 113.625,165.125 118.625,165.125 118.625,153.125 	"/>
	<polygon id="led_55" fill="#808080" points="96.625,153.125 96.625,165.125 101.625,165.125 101.625,153.125 	"/>
	<polygon id="led_54" fill="#808080" points="79.625,153.125 79.625,165.125 84.625,165.125 84.625,153.125 	"/>
	<polygon id="led_53" fill="#808080" points="62.625,153.125 62.625,165.125 67.625,165.125 67.625,153.125 	"/>
	<polygon id="led_52" fill="#808080" points="45.625,153.125 45.625,165.125 50.625,165.125 50.625,153.125 	"/>
	<polygon id="led_51" fill="#808080" points="283.625,124.125 283.625,136.125 288.625,136.125 288.625,124.125 	"/>
	<polygon id="led_50" fill="#808080" points="266.625,124.125 266.625,136.125 271.625,136.125 271.625,124.125 	"/>
	<polygon id="led_49" fill="#808080" points="249.625,124.125 249.625,136.125 254.625,136.125 254.625,124.125 	"/>
	<polygon id="led_48" fill="#808080" points="232.625,124.125 232.625,136.125 237.625,136.125 237.625,124.125 	"/>
	<polygon id="led_47" fill="#808080" points="215.625,124.125 215.625,136.125 220.625,136.125 220.625,124.125 	"/>
	<polygon id="led_46" fill="#808080" points="198.625,124.125 198.625,136.125 203.625,136.125 203.625,124.125 	"/>
	<polygon id="led_45" fill="#808080" points="181.625,124.125 181.625,136.125 186.625,136.125 186.625,124.125 	"/>
	<polygon id="led_44" fill="#808080" points="164.625,124.125 164.625,136.125 169.625,136.125 169.625,124.125 	"/>
	<polygon id="led_43" fill="#808080" points="147.625,124.125 147.625,136.125 152.625,136.125 152.625,124.125 	"/>
	<polygon id="led_42" fill="#808080" points="130.625,124.125 130.625,136.125 135.625,136.125 135.625,124.125 	"/>
	<polygon id="led_41" fill="#808080" points="113.625,124.125 113.625,136.125 118.625,136.125 118.625,124.125 	"/>
	<polygon id="led_40" fill="#808080" points="96.625,124.125 96.625,136.125 101.625,136.125 101.625,124.125 	"/>
	<polygon id="led_39" fill="#808080" points="79.625,124.125 79.625,136.125 84.625,136.125 84.625,124.125 	"/>
	<polygon id="led_38" fill="#808080" points="62.625,124.125 62.625,136.125 67.625,136.125 67.625,124.125 	"/>
	<polygon id="led_37" fill="#808080" points="45.625,124.125 45.625,136.125 50.625,136.125 50.625,124.125 	"/>
	<polygon id="led_36" fill="#808080" points="283.625,95.125 283.625,107.125 288.625,107.125 288.625,95.125 	"/>
	<polygon id="led_35" fill="#808080" points="266.625,95.125 266.625,107.125 271.625,107.125 271.625,95.125 	"/>
	<polygon id="led_34" fill="#808080" points="249.625,95.125 249.625,107.125 254.625,107.125 254.625,95.125 	"/>
	<polygon id="led_33" fill="#808080" points="232.625,95.125 232.625,107.125 237.625,107.125 237.625,95.125 	"/>
	<polygon id="led_32" fill="#808080" points="215.625,95.125 215.625,107.125 220.625,107.125 220.625,95.125 	"/>
	<polygon id="led_31" fill="#808080" points="198.625,95.125 198.625,107.125 203.625,107.125 203.625,95.125 	"/>
	<polygon id="led_30" fill="#808080" points="181.625,95.125 181.625,107.125 186.625,107.125 186.625,95.125 	"/>
	<polygon id="led_29" fill="#808080" points="164.625,95.125 164.625,107.125 169.625,107.125 169.625,95.125 	"/>
	<polygon id="led_28" fill="#808080" points="147.625,95.125 147.625,107.125 152.625,107.125 152.625,95.125 	"/>
	<polygon id="led_27" fill="#808080" points="130.625,95.125 130.625,107.125 135.625,107.125 135.625,95.125 	"/>
	<polygon id="led_26" fill="#808080" points="113.625,95.125 113.625,107.125 118.625,107.125 118.625,95.125 	"/>
	<polygon id="led_25" fill="#808080" points="96.625,95.125 96.625,107.125 101.625,107.125 101.625,95.125 	"/>
	<polygon id="led_24" fill="#808080" points="79.625,95.125 79.625,107.125 84.625,107.125 84.625,95.125 	"/>
	<polygon id="led_23" fill="#808080" points="62.625,95.125 62.625,107.125 67.625,107.125 67.625,95.125 	"/>
	<polygon id="led_22" fill="#808080" points="45.625,95.125 45.625,107.125 50.625,107.125 50.625,95.125 	"/>
	<polygon id="led_21" fill="#808080" points="249.625,66.125 249.625,78.125 254.625,78.125 254.625,66.125 	"/>
	<polygon id="led_20" fill="#808080" points="232.625,66.125 232.625,78.125 237.625,78.125 237.625,66.125 	"/>
	<polygon id="led_19" fill="#808080" points="215.625,66.125 215.625,78.125 220.625,78.125 220.625,66.125 	"/>
	<polygon id="led_18" fill="#808080" points="198.625,66.125 198.625,78.125 203.625,78.125 203.625,66.125 	"/>
	<polygon id="led_17" fill="#808080" points="181.625,66.125 181.625,78.125 186.625,78.125 186.625,66.125 	"/>
	<polygon id="led_16" fill="#808080" points="164.625,66.125 164.625,78.125 169.625,78.125 169.625,66.125 	"/>
	<polygon id="led_15" fill="#808080" points="147.625,66.125 147.625,78.125 152.625,78.125 152.625,66.125 	"/>
	<polygon id="led_14" fill="#808080" points="130.625,66.125 130.625,78.125 135.625,78.125 135.625,66.125 	"/>
	<polygon id="led_13" fill="#808080" points="113.625,66.125 113.625,78.125 118.625,78.125 118.625,66.125 	"/>
	<polygon id="led_12" fill="#808080" points="96.625,66.125 96.625,78.125 101.625,78.125 101.625,66.125 	"/>
	<polygon id="led_11" fill="#808080" points="79.625,66.125 79.625,78.125 84.625,78.125 84.625,66.125 	"/>
	<polygon id="led_10" fill="#808080" points="62.625,66.125 62.625,78.125 67.625,78.125 67.625,66.125 	"/>
	<polygon id="led_9" fill="#808080" points="232.625,37.125 232.625,49.125 237.625,49.125 237.625,37.125 	"/>
	<polygon id="led_8" fill="#808080" points="215.625,37.125 215.625,49.125 220.625,49.125 220.625,37.125 	"/>
	<polygon id="led_7" fill="#808080" points="198.625,37.125 198.625,49.125 203.625,49.125 203.625,37.125 	"/>
	<polygon id="led_6" fill="#808080" points="181.625,37.125 181.625,49.125 186.625,49.125 186.625,37.125 	"/>
	<polygon id="led_5" fill="#808080" points="164.625,37.125 164.625,49.125 169.625,49.125 169.625,37.125 	"/>
	<polygon id="led_4" fill="#808080" points="147.625,37.125 147.625,49.125 152.625,49.125 152.625,37.125 	"/>
	<polygon id="led_3" fill="#808080" points="130.625,37.125 130.625,49.125 135.625,49.125 135.625,37.125 	"/>
	<polygon id="led_2" fill="#808080" points="113.625,37.125 113.625,49.125 118.625,49.125 118.625,37.125 	"/>
	<polygon id="led_1" fill="#808080" points="96.625,37.125 96.625,49.125 101.625,49.125 101.625,37.125 	"/>
</g>
</svg>
